<svg xmlns="http://www.w3.org/2000/svg" viewBox="0 0 64 64" width="64" height="64">
    <defs>
        <linearGradient id="ng" x1="0" y1="0" x2="1" y2="1">
            <stop offset="0%" stop-color="#4aa3ff"/>
            <stop offset="55%" stop-color="#8a5cff"/>
            <stop offset="100%" stop-color="#ff6ad5"/>
        </linearGradient>
        <filter id="blur" x="-20%" y="-20%" width="140%" height="140%">
            <feGaussianBlur stdDeviation="0.6"/>
        </filter>
    </defs>

    <path d="M32 4 L56 18 L56 46 L32 60 L8 46 L8 18 Z"
          fill="none"
          stroke="url(#ng)"
          stroke-width="2.5"
          stroke-linejoin="round"/>

    <path d="M32 12 L48 21 L48 43 L32 52 L16 43 L16 21 Z"
          fill="rgba(138,92,255,0.12)"
          stroke="url(#ng)"
          stroke-width="1"
          stroke-linejoin="round"/>

    <path d="M22 42 L22 22 L26 22 L40 38 L40 22 L44 22 L44 42 L40 42 L26 26 L26 42 Z"
          fill="url(#ng)"
          filter="url(#blur)"/>

    <circle cx="32" cy="8" r="1.6" fill="#4aa3ff"/>
    <circle cx="32" cy="56" r="1.6" fill="#ff6ad5"/>
</svg>
